<?xml version="1.0" encoding="UTF-8"?>
<svg id="Layer_2" data-name="Layer 2" xmlns="http://www.w3.org/2000/svg" viewBox="0 0 408.35 246.31">
  <defs>
    <style>
      .cls-1 {
        fill: #fff;
      }
    </style>
  </defs>
  <g id="Layer_1-2" data-name="Layer 1">
    <g id="sbl_logo_text_only">
      <g>
        <path class="cls-1" d="M330.92,0l.26.8c2.25,6.97,7.52,12.56,14.36,15.2h0s0,0,0,0c-6.83,2.64-12.11,8.23-14.36,15.2l-.26.8-.26-.8c-2.25-6.97-7.52-12.56-14.36-15.2h0s0,0,0,0c6.83-2.64,12.11-8.23,14.36-15.2l.26-.8Z"/>
        <path class="cls-1" d="M30.39,120c-4.5,0-8.67-.66-12.5-1.99-3.84-1.33-7.25-3.28-10.23-5.86-2.99-2.58-5.48-5.83-7.47-9.74l13.61-8.74c2.06,3.17,4.63,5.62,7.69,7.36,3.06,1.73,6.36,2.6,9.9,2.6,2.95,0,5.16-.59,6.64-1.77,1.47-1.18,2.21-2.73,2.21-4.65,0-1.18-.33-2.25-1-3.21-.66-.96-1.92-1.86-3.76-2.71-1.84-.85-4.46-1.64-7.86-2.38-6.35-1.47-11.36-3.32-15.05-5.53-3.69-2.21-6.31-4.89-7.86-8.02-1.55-3.13-2.32-6.69-2.32-10.68,0-4.43,1.12-8.43,3.37-12.01,2.25-3.58,5.49-6.42,9.74-8.52,4.24-2.1,9.24-3.15,14.99-3.15,6.57,0,12.13,1.29,16.71,3.87,4.57,2.58,8.15,5.94,10.73,10.07l-13.61,9.74c-1.84-2.43-4.15-4.17-6.92-5.2-2.77-1.03-5.48-1.55-8.13-1.55s-4.89.52-6.47,1.55c-1.59,1.03-2.38,2.51-2.38,4.43,0,1.77.83,3.23,2.49,4.37,1.66,1.14,4.92,2.27,9.79,3.37,6.2,1.48,11.21,3.28,15.05,5.42,3.83,2.14,6.66,4.78,8.46,7.91,1.81,3.14,2.71,6.95,2.71,11.45s-1.16,8.63-3.49,12.17c-2.32,3.54-5.61,6.33-9.85,8.35-4.24,2.03-9.31,3.04-15.21,3.04Z"/>
        <path class="cls-1" d="M61.81,60.14v-17.37h62.07v17.37h-62.07ZM83.72,118.12V50.18h18.04v67.94h-18.04Z"/>
        <path class="cls-1" d="M114.92,118.12l26.67-75.35h18.92l24.78,75.35h-18.04l-19.47-63.07h6.53l-21.46,63.07h-17.92ZM132.18,88.8h33.64v16.6h-33.64v-16.6Z"/>
        <path class="cls-1" d="M191.15,118.12V42.77h27.88c5.46,0,10.36,1.05,14.72,3.15,4.35,2.1,7.82,5.16,10.4,9.18,2.58,4.02,3.87,8.87,3.87,14.55s-1.29,10.62-3.87,14.6c-2.58,3.98-6.05,7.01-10.4,9.07-4.35,2.07-9.26,3.1-14.72,3.1h-14.05v-17.26h13.06c3.76,0,6.66-.81,8.69-2.43,2.03-1.62,3.04-3.98,3.04-7.08s-1.01-5.46-3.04-7.08c-2.03-1.62-4.92-2.43-8.69-2.43h-13.17l4.2-3.87v61.85h-17.92ZM229.21,118.12l-15.49-30.43h19.58l15.49,30.43h-19.58Z"/>
        <path class="cls-1" d="M256.76,118.12V42.77h27.77c6.56,0,11.78.79,15.66,2.38,3.87,1.59,6.64,3.93,8.3,7.03,1.66,3.1,2.49,6.93,2.49,11.51,0,3.54-.74,6.66-2.21,9.35-1.48,2.69-3.5,4.8-6.09,6.31-2.58,1.51-5.57,2.27-8.96,2.27l.22-2.77c4.28,0,7.78.81,10.51,2.43,2.73,1.62,4.74,3.82,6.03,6.58,1.29,2.77,1.94,5.77,1.94,9.02,0,7.08-2.16,12.39-6.47,15.93s-10.79,5.31-19.42,5.31h-29.76ZM274.69,51.51v57.09l-6.2-7.63h17.59c2.43,0,4.39-.57,5.86-1.72,1.47-1.14,2.21-2.78,2.21-4.92s-.7-3.87-2.1-4.98c-1.4-1.11-3.32-1.66-5.75-1.66h-17.81v-15.16h16.27c2.58,0,4.54-.52,5.86-1.55,1.33-1.03,1.99-2.62,1.99-4.76s-.66-3.63-1.99-4.7c-1.33-1.07-3.28-1.6-5.86-1.6h-15.93l5.86-8.41Z"/>
        <path class="cls-1" d="M346.27,60.14v-17.37h62.07v17.37h-62.07ZM368.18,118.12V50.18h18.04v67.94h-18.04Z"/>
        <path class="cls-1" d="M62.41,244.47H0v-104.17h20.04v91.32l-4.44-6.27h46.81v19.12Z"/>
        <path class="cls-1" d="M96.22,244.47h-20.04v-104.17h20.04v104.17Z"/>
        <path class="cls-1" d="M163.06,246.31c-10.51,0-19.73-2.32-27.69-6.96-7.95-4.64-14.13-10.99-18.51-19.05-4.39-8.05-6.58-17.18-6.58-27.38,0-7.95,1.3-15.24,3.9-21.87,2.6-6.63,6.27-12.37,11.01-17.21,4.74-4.84,10.33-8.59,16.75-11.24,6.42-2.65,13.46-3.98,21.11-3.98,11.93,0,21.77,2.52,29.52,7.57,7.75,5.05,13.82,12.01,18.2,20.88l-18.66,7.04c-3.77-5.91-8.03-10.07-12.77-12.47-4.74-2.39-10.17-3.59-16.29-3.59s-11.76,1.45-16.6,4.36c-4.85,2.91-8.67,6.96-11.47,12.16-2.81,5.2-4.21,11.32-4.21,18.36s1.4,12.7,4.21,17.9c2.8,5.2,6.63,9.26,11.47,12.16,4.84,2.91,10.38,4.36,16.6,4.36s11.19-1.2,15.83-3.59c4.64-2.4,8.34-5.71,11.09-9.94,2.75-4.23,4.23-9.15,4.44-14.76l5.05,8.11h-37.78v-18.2h50.79c.41,1.43.71,2.98.92,4.66.2,1.68.31,3.34.31,4.97,0,6.94-1.33,13.31-3.98,19.12-2.65,5.81-6.3,10.86-10.94,15.14-4.64,4.28-10,7.6-16.06,9.94-6.07,2.35-12.62,3.52-19.66,3.52Z"/>
        <path class="cls-1" d="M227.01,244.47v-104.17h20.04v104.17h-20.04ZM240.01,203.02v-19.12h57.36v19.12h-57.36ZM290.79,244.47v-104.17h20.04v104.17h-20.04Z"/>
        <path class="cls-1" d="M322.92,159.42v-19.12h83.83v19.12h-83.83ZM354.28,244.47v-93.31h20.19v93.31h-20.19Z"/>
        <path class="cls-1" d="M330.75,44c-3.22,0-6.3-.59-9.15-1.66v74.78h17.92V42.48c-2.74.98-5.7,1.52-8.78,1.52Z"/>
      </g>
    </g>
  </g>
</svg>